# xmcd CD database file
#
# Track frame offsets:
#	150
#	13495
#	20663
#	33825
#	43823
#	58280
#	71815
#	79563
#	92325
#	103393
#	115535
#	136500
#	150675
#	161715
#
# Disc length: 2355 seconds
#
# Revision: 0
# Processed by: cddbd v1.5.1PL0 Copyright (c) Steve Scherf et al.
# Submitted via: CDex 1.51
#
DISCID=b509310e
DTITLE=Julie London - best of master series
DYEAR=1900
DGENRE=Jazz
TTITLE0=cry me a river
TTITLE1=It's wonderful
TTITLE2=round midnight
TTITLE3=lonely night in Paris
TTITLE4=Misty
TTITLE5=Black coffee
TTITLE6=lush life
TTITLE7=in the wee small hours of the morning
TTITLE8=don't smoke in bed
TTITLE9=youand the night and the music
TTITLE10=something cool
TTITLE11=how abou me
TTITLE12=but not for me
TTITLE13=the party's over
EXTD=
EXTT0=
EXTT1=
EXTT2=
EXTT3=
EXTT4=
EXTT5=
EXTT6=
EXTT7=
EXTT8=
EXTT9=
EXTT10=
EXTT11=
EXTT12=
EXTT13=
PLAYORDER=
